# xmcd
#
# Track frame offsets:
#	150
#	10637
#	21615
#	41113
#	48417
#	55033
#	73596
#	85230
#	98912
#	114426
#	127267
#	140124
#	153887
#	167881
#	181383
#	194742
#	207785
#	220873
#	234431
#	248612
#	262783
#	275249
#	287550
#	301395
#	314883
#	328270
#
# Disc length: 4561 seconds
#
# Revision: 0
# Processed by: cddbd v1.5.1PL2 Copyright (c) Steve Scherf et al.
# Submitted via: EasyCDDAExtractor 9.1.3.1
#
DISCID=8d11cf1a
DTITLE=Gabriel Brown - Shake That Thing! (East Coast Blues, 1935-53) - Disc A 
DTITLE=(1935-44)
DYEAR=2006
DGENRE=Blues
TTITLE0=John Henry (Vocal)
TTITLE1=John Henry
TTITLE2=Blues
TTITLE3=Tone The Bell Easy
TTITLE4=Motherless Child
TTITLE5=Po' Boy, Long Way From Home
TTITLE6=A Dream Of Mine
TTITLE7=Education Blues
TTITLE8=Talking In Sebastopol
TTITLE9=Careless Love
TTITLE10=I Get Evil When My Love Comes Down
TTITLE11=You Ain't No Good
TTITLE12=Black Jack Blues
TTITLE13=Going My Way
TTITLE14=Down In The Bottom
TTITLE15=Bad Love
TTITLE16=I've Got To Stop Drinkin'
TTITLE17=Cold Love
TTITLE18=Not Now, I'll Tell You When
TTITLE19=I'm Gonna Take It Easy
TTITLE20=That's Alright
TTITLE21=Stick With Me
TTITLE22=I've Done Stopped Gamblin'
TTITLE23=Doing My Best
TTITLE24=Good-Time Papa
TTITLE25=Baby, Boy, Baby
EXTD=
EXTT0=
EXTT1=
EXTT2=
EXTT3=
EXTT4=
EXTT5=
EXTT6=
EXTT7=
EXTT8=
EXTT9=
EXTT10=
EXTT11=
EXTT12=
EXTT13=
EXTT14=
EXTT15=
EXTT16=
EXTT17=
EXTT18=
EXTT19=
EXTT20=
EXTT21=
EXTT22=
EXTT23=
EXTT24=
EXTT25=
PLAYORDER=
